<?xml version="1.0" encoding="UTF-8"?><svg xmlns="http://www.w3.org/2000/svg" viewBox="0 0 1133.6 808.73"><g id="a"><path d="M774.41,715.39c-147.49,0-267.06-119.57-267.06-267.05s119.57-267.05,267.06-267.05,267,119.55,267,267.05-119.53,267.05-267,267.05Z" style="fill:#fffdf0;"/></g><g id="b"><path d="M712.52,0h122.82c14.34,0,25.96,11.62,25.96,25.96,0,14.34-11.63,25.96-25.96,25.96h-35.45s0,.02,0,.02h-51.93v-.02s-35.45,0-35.45,0c-14.34,0-25.96-11.62-25.96-25.96,0-14.34,11.62-25.96,25.96-25.96Z" style="fill:#6b21a8;"/><path d="M25.96,667.5h94.24c14.34,0,25.96-11.62,25.96-25.96,0-14.34-11.62-25.96-25.96-25.96H25.96c-14.34,0-25.96,11.62-25.96,25.96s11.63,25.96,25.96,25.96Z" style="fill:#6b21a8;"/><path d="M120.21,474.98h73.47c14.34,0,25.96-11.62,25.96-25.96,0-14.34-11.62-25.96-25.96-25.96h-73.47c-14.34,0-25.96,11.62-25.96,25.96,0,14.34,11.63,25.96,25.96,25.96Z" style="fill:#6b21a8;"/><path d="M1083.55,266.13c-1.68-2.84-3.4-5.65-5.17-8.43l-35.99,40.99c1.71,3.03,3.37,6.1,4.97,9.19,21.93,42.32,34.31,90.33,34.31,141.17,0,169.62-138.04,307.75-307.75,307.75s-307.74-138.13-307.74-307.75,138.02-307.83,307.74-307.83c67.57,0,130.11,21.88,180.93,58.96,2.05,1.49,4.07,3,6.07,4.55l34.31-39.08c-1.99-1.55-3.97-3.09-5.99-4.59-60.06-45.05-134.63-71.76-215.32-71.76-52.59,0-116.27,9.34-167.2,14.88-32.28,3.51-546.17,0-546.17,0-14.29,0-25.96,11.59-25.96,25.96s11.67,25.96,25.96,25.96h414.71c8.05,0,15.24,3.29,20.52,8.49,5.18,5.28,8.47,12.54,8.47,20.59,0,16-12.97,29.08-28.99,29.08h-247c-14.28,0-25.96,11.59-25.96,25.96s11.69,25.96,25.96,25.96h95.81c21.63,0,41.19,8.74,55.39,22.92,14.18,14.2,23.01,33.85,23.01,55.48,0,43.36-35.13,78.49-78.4,78.49h-30.9c-14.37,0-25.96,11.59-25.96,25.96s11.59,25.96,25.96,25.96h39.03c19.38,0,36.95,7.88,49.68,20.59,12.73,12.73,20.59,30.22,20.59,49.68,0,38.78-31.5,70.28-70.27,70.28h-103.94c-14.28,0-25.96,11.59-25.96,25.96s11.69,25.96,25.96,25.96h231.07c20.52,0,37.21,16.7,37.21,37.29,0,10.21-4.16,19.57-10.91,26.32s-16,10.89-26.3,10.89h-16.09c-14.37,0-25.96,11.61-25.96,25.96s11.59,25.96,25.96,25.96c0,0,157.45-1.01,174.37.16,16.92,1.16,99.34,14.65,156.31,14.65,198.36,0,359.68-161.41,359.68-359.68,0-66.73-18.27-129.29-50.05-182.92Z" style="fill:#6b21a8;"/></g><g id="c"><path d="M1109.69,164.12c-.54-8.45-4.34-16.18-10.7-21.77-13.12-11.54-33.18-10.25-44.73,2.87l-260.08,295.79-90.83-97.93c-5.76-6.21-13.59-9.8-22.05-10.12-8.45-.32-16.54,2.67-22.74,8.43-6.21,5.76-9.8,13.59-10.12,22.05-.32,8.46,2.68,16.54,8.44,22.75l114.69,123.67c5.98,6.44,14.45,10.14,23.24,10.14h.42c8.95-.12,17.47-4.04,23.39-10.77l283.25-322.14c5.59-6.36,8.38-14.51,7.83-22.96Z" style="fill:#2ac485;"/></g></svg>