<?xml version="1.0" encoding="UTF-8"?><svg xmlns="http://www.w3.org/2000/svg" viewBox="0 0 1665.85 247.61"><g id="a"><path d="M425.33,40.82h136.66v24.42h-56.12v146.43h-24.42V65.24h-56.12v-24.42Z"/><path d="M574.26,156.27c0-3.26.62-6.29,1.85-9.12,1.23-2.82,2.9-5.3,5-7.45,2.1-2.14,4.59-3.83,7.45-5.06,2.86-1.23,5.88-1.85,9.05-1.85h60.52v-24.54h-76.61v-23.47h76.61c3.26,0,6.32.62,9.17,1.85,2.86,1.23,5.34,2.9,7.45,5,2.1,2.11,3.77,4.59,5,7.45,1.23,2.86,1.85,5.92,1.85,9.17v103.42h-23.47v-21.45c-.24,2.94-1.03,5.72-2.38,8.34-1.35,2.62-3.08,4.91-5.18,6.85-2.11,1.95-4.51,3.48-7.21,4.59-2.7,1.11-5.56,1.67-8.58,1.67h-37.17c-3.18,0-6.2-.61-9.05-1.85-2.86-1.23-5.34-2.9-7.45-5-2.11-2.1-3.77-4.59-5-7.45-1.23-2.86-1.85-5.92-1.85-9.17v-31.93ZM597.61,188.2h60.52v-31.93h-60.52v31.93Z"/><path d="M797.3,188.2v-29.43h-55.64c-3.26,0-6.31-.61-9.17-1.85-2.86-1.23-5.34-2.9-7.45-5-2.11-2.1-3.77-4.59-5-7.45-1.23-2.86-1.85-5.92-1.85-9.17v-27.05c0-3.26.61-6.31,1.85-9.17,1.23-2.86,2.9-5.34,5-7.45s4.59-3.77,7.45-5c2.86-1.23,5.92-1.85,9.17-1.85h74.23v23.47h-74.23v27.05h55.64c3.26,0,6.29.62,9.12,1.85,2.82,1.23,5.3,2.9,7.45,5,2.14,2.11,3.83,4.59,5.06,7.45,1.23,2.86,1.85,5.92,1.85,9.17v29.43c0,3.26-.62,6.32-1.85,9.17-1.23,2.86-2.92,5.34-5.06,7.45-2.14,2.11-4.63,3.77-7.45,5-2.82,1.23-5.86,1.85-9.12,1.85h-79.11v-23.47h79.11Z"/><path d="M941.22,211.67l-60.52-54.21v54.21h-23.35V35.94h23.35v98.89l55.64-50.04h33l-68.15,61.24,73.03,65.65h-33Z"/><path d="M978.99,40.82h136.66v24.42h-56.12v146.43h-24.42V65.24h-56.12v-24.42Z"/><path d="M1142.58,35.94h25.85v24.42h-25.85v-24.42ZM1167.24,84.78v126.89h-23.47v-126.89h23.47Z"/><path d="M1308.07,108.26v103.42h-23.47v-103.42h-53.73v103.42h-23.35v-126.89h23.35v22.4c.16-3.1.87-6.02,2.14-8.76,1.27-2.74,2.96-5.12,5.06-7.15,2.1-2.03,4.55-3.61,7.33-4.77,2.78-1.15,5.76-1.73,8.94-1.73h30.26c3.1,0,6.04.58,8.82,1.73,2.78,1.15,5.24,2.74,7.39,4.77s3.87,4.41,5.18,7.15c1.31,2.74,2,5.66,2.08,8.76.16-3.1.85-6.02,2.08-8.76,1.23-2.74,2.9-5.12,5-7.15,2.1-2.03,4.55-3.61,7.33-4.77,2.78-1.15,5.76-1.73,8.94-1.73h30.26c3.26,0,6.31.62,9.17,1.85,2.86,1.23,5.34,2.9,7.45,5,2.1,2.11,3.77,4.59,5,7.45,1.23,2.86,1.85,5.92,1.85,9.17v103.42h-23.47v-103.42h-53.61Z"/><path d="M1531.58,160.2h-84v28h84v23.47h-84c-3.18,0-6.2-.61-9.05-1.85-2.86-1.23-5.34-2.9-7.45-5-2.11-2.1-3.77-4.59-5-7.45-1.23-2.86-1.85-5.92-1.85-9.17v-79.94c0-3.26.62-6.31,1.85-9.17,1.23-2.86,2.9-5.34,5-7.45s4.59-3.77,7.45-5c2.86-1.23,5.88-1.85,9.05-1.85h60.52c3.26,0,6.32.62,9.17,1.85,2.86,1.23,5.34,2.9,7.45,5,2.1,2.11,3.77,4.59,5,7.45,1.23,2.86,1.85,5.92,1.85,9.17v51.95ZM1447.58,108.26v28.48h60.52v-28.48h-60.52Z"/><path d="M1594.01,108.26v103.42h-23.35v-126.89h23.35v22.4c.16-3.1.87-6.02,2.14-8.76,1.27-2.74,2.96-5.12,5.06-7.15,2.1-2.03,4.55-3.61,7.33-4.77,2.78-1.15,5.76-1.73,8.94-1.73h24.9c3.26,0,6.29.62,9.11,1.85,2.82,1.23,5.3,2.9,7.45,5,2.14,2.11,3.83,4.59,5.06,7.45,1.23,2.86,1.85,5.92,1.85,9.17v21.45h-23.47v-21.45h-48.37Z"/></g><g id="b"><path d="M237.1,219.03c-45.16,0-81.77-36.61-81.77-81.76s36.61-81.76,81.77-81.76,81.75,36.6,81.75,81.76-36.6,81.76-81.75,81.76Z" style="fill:#fffdf0;"/><path d="M218.15,0h37.6c4.39,0,7.95,3.56,7.95,7.95,0,4.39-3.56,7.95-7.95,7.95h-10.85s0,0,0,0h-15.9,0s-10.85,0-10.85,0c-4.39,0-7.95-3.56-7.95-7.95,0-4.39,3.56-7.95,7.95-7.95Z" style="fill:#6b21a8;"/><path d="M7.95,204.37h28.85c4.39,0,7.95-3.56,7.95-7.95s-3.56-7.95-7.95-7.95H7.95c-4.39,0-7.95,3.56-7.95,7.95s3.56,7.95,7.95,7.95Z" style="fill:#6b21a8;"/><path d="M36.8,145.42h22.49c4.39,0,7.95-3.56,7.95-7.95s-3.56-7.95-7.95-7.95h-22.49c-4.39,0-7.95,3.56-7.95,7.95s3.56,7.95,7.95,7.95Z" style="fill:#6b21a8;"/><path d="M331.75,81.48c-.51-.87-1.04-1.73-1.58-2.58l-11.02,12.55c.52.93,1.03,1.87,1.52,2.81,6.71,12.96,10.51,27.66,10.51,43.22,0,51.93-42.26,94.22-94.22,94.22s-94.22-42.29-94.22-94.22,42.26-94.25,94.22-94.25c20.69,0,39.84,6.7,55.4,18.05.63.46,1.24.92,1.86,1.39l10.51-11.96c-.61-.48-1.22-.95-1.83-1.41-18.39-13.79-41.22-21.97-65.92-21.97-16.1,0-35.6,2.86-51.19,4.56-9.88,1.07-167.22,0-167.22,0-4.38,0-7.95,3.55-7.95,7.95s3.57,7.95,7.95,7.95h126.97c2.47,0,4.67,1.01,6.28,2.6,1.59,1.62,2.59,3.84,2.59,6.31,0,4.9-3.97,8.9-8.88,8.9h-75.62c-4.37,0-7.95,3.55-7.95,7.95s3.58,7.95,7.95,7.95h29.33c6.62,0,12.61,2.68,16.96,7.02,4.34,4.35,7.05,10.36,7.05,16.99,0,13.28-10.76,24.03-24,24.03h-9.46c-4.4,0-7.95,3.55-7.95,7.95s3.55,7.95,7.95,7.95h11.95c5.93,0,11.31,2.41,15.21,6.31,3.9,3.9,6.31,9.25,6.31,15.21,0,11.87-9.65,21.52-21.51,21.52h-31.82c-4.37,0-7.95,3.55-7.95,7.95s3.58,7.95,7.95,7.95h70.75c6.28,0,11.39,5.11,11.39,11.42,0,3.13-1.27,5.99-3.34,8.06s-4.9,3.34-8.05,3.34h-4.93c-4.4,0-7.95,3.55-7.95,7.95s3.55,7.95,7.95,7.95c0,0,48.21-.31,53.39.05,5.18.36,30.41,4.49,47.86,4.49,60.73,0,110.12-49.42,110.12-110.12,0-20.43-5.59-39.58-15.32-56Z" style="fill:#6b21a8;"/><path d="M339.75,50.25c-.17-2.59-1.33-4.95-3.28-6.67-4.02-3.53-10.16-3.14-13.7.88l-79.63,90.56-27.81-29.98c-1.76-1.9-4.16-3-6.75-3.1-2.59-.1-5.06.82-6.96,2.58-1.9,1.76-3,4.16-3.1,6.75-.1,2.59.82,5.06,2.58,6.96l35.12,37.86c1.83,1.97,4.42,3.1,7.11,3.1h.13c2.74-.04,5.35-1.24,7.16-3.3l86.72-98.63c1.71-1.95,2.56-4.44,2.4-7.03Z" style="fill:#2ac485;"/></g></svg>